<mxfile host="app.diagrams.net" modified="2021-11-19T09:00:00.682Z" agent="5.0 (Macintosh; Intel Mac OS X 10_15_7) AppleWebKit/537.36 (KHTML, like Gecko) Chrome/96.0.4664.55 Safari/537.36" etag="yWTBn877W--sGbwGNi7V" version="15.7.3" type="github">
  <diagram id="wC2fVHmgpPSq6xGPkYNB" name="Page-1">
    <mxGraphModel dx="889" dy="777" grid="1" gridSize="10" guides="1" tooltips="1" connect="1" arrows="1" fold="1" page="1" pageScale="1" pageWidth="850" pageHeight="1100" math="0" shadow="0">
      <root>
        <mxCell id="0" />
        <mxCell id="1" parent="0" />
        <mxCell id="ZfPVv0Ui4lVQKmfQsqAl-13" style="edgeStyle=orthogonalEdgeStyle;rounded=0;orthogonalLoop=1;jettySize=auto;html=1;entryX=0;entryY=0.75;entryDx=0;entryDy=0;" edge="1" parent="1" source="ZfPVv0Ui4lVQKmfQsqAl-1" target="ZfPVv0Ui4lVQKmfQsqAl-3">
          <mxGeometry relative="1" as="geometry" />
        </mxCell>
        <mxCell id="ZfPVv0Ui4lVQKmfQsqAl-14" style="edgeStyle=orthogonalEdgeStyle;rounded=0;orthogonalLoop=1;jettySize=auto;html=1;entryX=0;entryY=0.5;entryDx=0;entryDy=0;" edge="1" parent="1" source="ZfPVv0Ui4lVQKmfQsqAl-1" target="ZfPVv0Ui4lVQKmfQsqAl-12">
          <mxGeometry relative="1" as="geometry" />
        </mxCell>
        <mxCell id="ZfPVv0Ui4lVQKmfQsqAl-15" style="edgeStyle=orthogonalEdgeStyle;rounded=0;orthogonalLoop=1;jettySize=auto;html=1;entryX=0;entryY=0.5;entryDx=0;entryDy=0;" edge="1" parent="1" source="ZfPVv0Ui4lVQKmfQsqAl-1" target="ZfPVv0Ui4lVQKmfQsqAl-4">
          <mxGeometry relative="1" as="geometry" />
        </mxCell>
        <mxCell id="ZfPVv0Ui4lVQKmfQsqAl-16" style="edgeStyle=orthogonalEdgeStyle;rounded=0;orthogonalLoop=1;jettySize=auto;html=1;entryX=0;entryY=0.5;entryDx=0;entryDy=0;" edge="1" parent="1" source="ZfPVv0Ui4lVQKmfQsqAl-1" target="ZfPVv0Ui4lVQKmfQsqAl-11">
          <mxGeometry relative="1" as="geometry" />
        </mxCell>
        <mxCell id="ZfPVv0Ui4lVQKmfQsqAl-17" style="edgeStyle=orthogonalEdgeStyle;rounded=0;orthogonalLoop=1;jettySize=auto;html=1;entryX=0;entryY=0.5;entryDx=0;entryDy=0;" edge="1" parent="1" source="ZfPVv0Ui4lVQKmfQsqAl-1" target="ZfPVv0Ui4lVQKmfQsqAl-5">
          <mxGeometry relative="1" as="geometry" />
        </mxCell>
        <mxCell id="ZfPVv0Ui4lVQKmfQsqAl-18" style="edgeStyle=orthogonalEdgeStyle;rounded=0;orthogonalLoop=1;jettySize=auto;html=1;entryX=0;entryY=0.5;entryDx=0;entryDy=0;" edge="1" parent="1" source="ZfPVv0Ui4lVQKmfQsqAl-1" target="ZfPVv0Ui4lVQKmfQsqAl-6">
          <mxGeometry relative="1" as="geometry" />
        </mxCell>
        <mxCell id="ZfPVv0Ui4lVQKmfQsqAl-19" style="edgeStyle=orthogonalEdgeStyle;rounded=0;orthogonalLoop=1;jettySize=auto;html=1;" edge="1" parent="1" source="ZfPVv0Ui4lVQKmfQsqAl-1" target="ZfPVv0Ui4lVQKmfQsqAl-7">
          <mxGeometry relative="1" as="geometry" />
        </mxCell>
        <mxCell id="ZfPVv0Ui4lVQKmfQsqAl-20" style="edgeStyle=orthogonalEdgeStyle;rounded=0;orthogonalLoop=1;jettySize=auto;html=1;entryX=0;entryY=0.75;entryDx=0;entryDy=0;" edge="1" parent="1" source="ZfPVv0Ui4lVQKmfQsqAl-1" target="ZfPVv0Ui4lVQKmfQsqAl-10">
          <mxGeometry relative="1" as="geometry" />
        </mxCell>
        <mxCell id="ZfPVv0Ui4lVQKmfQsqAl-21" style="edgeStyle=orthogonalEdgeStyle;rounded=0;orthogonalLoop=1;jettySize=auto;html=1;entryX=0;entryY=0.5;entryDx=0;entryDy=0;" edge="1" parent="1" source="ZfPVv0Ui4lVQKmfQsqAl-1" target="ZfPVv0Ui4lVQKmfQsqAl-9">
          <mxGeometry relative="1" as="geometry" />
        </mxCell>
        <mxCell id="ZfPVv0Ui4lVQKmfQsqAl-22" style="edgeStyle=orthogonalEdgeStyle;rounded=0;orthogonalLoop=1;jettySize=auto;html=1;entryX=0;entryY=0.5;entryDx=0;entryDy=0;" edge="1" parent="1" source="ZfPVv0Ui4lVQKmfQsqAl-1" target="ZfPVv0Ui4lVQKmfQsqAl-8">
          <mxGeometry relative="1" as="geometry" />
        </mxCell>
        <mxCell id="ZfPVv0Ui4lVQKmfQsqAl-1" value="&lt;b&gt;320 cores total&lt;br&gt;&lt;/b&gt;(vCPUs)" style="ellipse;whiteSpace=wrap;html=1;aspect=fixed;" vertex="1" parent="1">
          <mxGeometry x="50" y="250" width="160" height="160" as="geometry" />
        </mxCell>
        <mxCell id="ZfPVv0Ui4lVQKmfQsqAl-67" style="edgeStyle=orthogonalEdgeStyle;rounded=0;orthogonalLoop=1;jettySize=auto;html=1;entryX=0;entryY=0.5;entryDx=0;entryDy=0;" edge="1" parent="1" source="ZfPVv0Ui4lVQKmfQsqAl-3" target="ZfPVv0Ui4lVQKmfQsqAl-32">
          <mxGeometry relative="1" as="geometry" />
        </mxCell>
        <mxCell id="ZfPVv0Ui4lVQKmfQsqAl-3" value="32 cores w/ 128 GB" style="rounded=0;whiteSpace=wrap;html=1;" vertex="1" parent="1">
          <mxGeometry x="300" y="140" width="140" height="30" as="geometry" />
        </mxCell>
        <mxCell id="ZfPVv0Ui4lVQKmfQsqAl-69" style="edgeStyle=orthogonalEdgeStyle;rounded=0;orthogonalLoop=1;jettySize=auto;html=1;entryX=0;entryY=0.5;entryDx=0;entryDy=0;" edge="1" parent="1" source="ZfPVv0Ui4lVQKmfQsqAl-4" target="ZfPVv0Ui4lVQKmfQsqAl-33">
          <mxGeometry relative="1" as="geometry" />
        </mxCell>
        <mxCell id="ZfPVv0Ui4lVQKmfQsqAl-4" value="32 cores w/ 128 GB" style="rounded=0;whiteSpace=wrap;html=1;" vertex="1" parent="1">
          <mxGeometry x="300" y="190" width="140" height="30" as="geometry" />
        </mxCell>
        <mxCell id="ZfPVv0Ui4lVQKmfQsqAl-70" style="edgeStyle=orthogonalEdgeStyle;rounded=0;orthogonalLoop=1;jettySize=auto;html=1;entryX=0;entryY=0.5;entryDx=0;entryDy=0;" edge="1" parent="1" source="ZfPVv0Ui4lVQKmfQsqAl-5" target="ZfPVv0Ui4lVQKmfQsqAl-34">
          <mxGeometry relative="1" as="geometry" />
        </mxCell>
        <mxCell id="ZfPVv0Ui4lVQKmfQsqAl-5" value="32 cores w/ 128 GB" style="rounded=0;whiteSpace=wrap;html=1;" vertex="1" parent="1">
          <mxGeometry x="300" y="230" width="140" height="30" as="geometry" />
        </mxCell>
        <mxCell id="ZfPVv0Ui4lVQKmfQsqAl-71" style="edgeStyle=orthogonalEdgeStyle;rounded=0;orthogonalLoop=1;jettySize=auto;html=1;entryX=0;entryY=0.5;entryDx=0;entryDy=0;" edge="1" parent="1" source="ZfPVv0Ui4lVQKmfQsqAl-6" target="ZfPVv0Ui4lVQKmfQsqAl-35">
          <mxGeometry relative="1" as="geometry" />
        </mxCell>
        <mxCell id="ZfPVv0Ui4lVQKmfQsqAl-6" value="32 cores w/ 128 GB" style="rounded=0;whiteSpace=wrap;html=1;" vertex="1" parent="1">
          <mxGeometry x="300" y="270" width="140" height="30" as="geometry" />
        </mxCell>
        <mxCell id="ZfPVv0Ui4lVQKmfQsqAl-72" style="edgeStyle=orthogonalEdgeStyle;rounded=0;orthogonalLoop=1;jettySize=auto;html=1;entryX=0;entryY=0.5;entryDx=0;entryDy=0;" edge="1" parent="1" source="ZfPVv0Ui4lVQKmfQsqAl-7" target="ZfPVv0Ui4lVQKmfQsqAl-36">
          <mxGeometry relative="1" as="geometry" />
        </mxCell>
        <mxCell id="ZfPVv0Ui4lVQKmfQsqAl-7" value="32 cores w/ 128 GB" style="rounded=0;whiteSpace=wrap;html=1;" vertex="1" parent="1">
          <mxGeometry x="300" y="315" width="140" height="30" as="geometry" />
        </mxCell>
        <mxCell id="ZfPVv0Ui4lVQKmfQsqAl-73" style="edgeStyle=orthogonalEdgeStyle;rounded=0;orthogonalLoop=1;jettySize=auto;html=1;entryX=0;entryY=0.5;entryDx=0;entryDy=0;" edge="1" parent="1" source="ZfPVv0Ui4lVQKmfQsqAl-8" target="ZfPVv0Ui4lVQKmfQsqAl-37">
          <mxGeometry relative="1" as="geometry" />
        </mxCell>
        <mxCell id="ZfPVv0Ui4lVQKmfQsqAl-8" value="32 cores w/ 128 GB" style="rounded=0;whiteSpace=wrap;html=1;" vertex="1" parent="1">
          <mxGeometry x="300" y="365" width="140" height="30" as="geometry" />
        </mxCell>
        <mxCell id="ZfPVv0Ui4lVQKmfQsqAl-74" style="edgeStyle=orthogonalEdgeStyle;rounded=0;orthogonalLoop=1;jettySize=auto;html=1;entryX=0;entryY=0.5;entryDx=0;entryDy=0;" edge="1" parent="1" source="ZfPVv0Ui4lVQKmfQsqAl-9" target="ZfPVv0Ui4lVQKmfQsqAl-38">
          <mxGeometry relative="1" as="geometry" />
        </mxCell>
        <mxCell id="ZfPVv0Ui4lVQKmfQsqAl-9" value="32 cores w/ 128 GB" style="rounded=0;whiteSpace=wrap;html=1;" vertex="1" parent="1">
          <mxGeometry x="300" y="410" width="140" height="30" as="geometry" />
        </mxCell>
        <mxCell id="ZfPVv0Ui4lVQKmfQsqAl-75" style="edgeStyle=orthogonalEdgeStyle;rounded=0;orthogonalLoop=1;jettySize=auto;html=1;entryX=0;entryY=0.75;entryDx=0;entryDy=0;" edge="1" parent="1" source="ZfPVv0Ui4lVQKmfQsqAl-10" target="ZfPVv0Ui4lVQKmfQsqAl-39">
          <mxGeometry relative="1" as="geometry" />
        </mxCell>
        <mxCell id="ZfPVv0Ui4lVQKmfQsqAl-10" value="32 cores w/ 128 GB" style="rounded=0;whiteSpace=wrap;html=1;" vertex="1" parent="1">
          <mxGeometry x="300" y="450" width="140" height="30" as="geometry" />
        </mxCell>
        <mxCell id="ZfPVv0Ui4lVQKmfQsqAl-76" style="edgeStyle=orthogonalEdgeStyle;rounded=0;orthogonalLoop=1;jettySize=auto;html=1;entryX=0;entryY=0.5;entryDx=0;entryDy=0;" edge="1" parent="1" source="ZfPVv0Ui4lVQKmfQsqAl-11" target="ZfPVv0Ui4lVQKmfQsqAl-40">
          <mxGeometry relative="1" as="geometry" />
        </mxCell>
        <mxCell id="ZfPVv0Ui4lVQKmfQsqAl-11" value="32 cores w/ 128 GB" style="rounded=0;whiteSpace=wrap;html=1;" vertex="1" parent="1">
          <mxGeometry x="300" y="490" width="140" height="30" as="geometry" />
        </mxCell>
        <mxCell id="ZfPVv0Ui4lVQKmfQsqAl-77" style="edgeStyle=orthogonalEdgeStyle;rounded=0;orthogonalLoop=1;jettySize=auto;html=1;entryX=0;entryY=0.5;entryDx=0;entryDy=0;" edge="1" parent="1" source="ZfPVv0Ui4lVQKmfQsqAl-12" target="ZfPVv0Ui4lVQKmfQsqAl-41">
          <mxGeometry relative="1" as="geometry" />
        </mxCell>
        <mxCell id="ZfPVv0Ui4lVQKmfQsqAl-12" value="32 cores w/ 128 GB" style="rounded=0;whiteSpace=wrap;html=1;" vertex="1" parent="1">
          <mxGeometry x="300" y="535" width="140" height="30" as="geometry" />
        </mxCell>
        <mxCell id="ZfPVv0Ui4lVQKmfQsqAl-23" value="&lt;b&gt;10 worker nodes for m5.8xlarge&lt;/b&gt;" style="rounded=1;whiteSpace=wrap;html=1;" vertex="1" parent="1">
          <mxGeometry x="290" y="60" width="150" height="50" as="geometry" />
        </mxCell>
        <mxCell id="ZfPVv0Ui4lVQKmfQsqAl-44" value="" style="edgeStyle=orthogonalEdgeStyle;rounded=0;orthogonalLoop=1;jettySize=auto;html=1;" edge="1" parent="1" source="ZfPVv0Ui4lVQKmfQsqAl-32" target="ZfPVv0Ui4lVQKmfQsqAl-43">
          <mxGeometry relative="1" as="geometry" />
        </mxCell>
        <mxCell id="ZfPVv0Ui4lVQKmfQsqAl-32" value="&lt;span&gt;3 executors&lt;/span&gt;" style="rounded=0;whiteSpace=wrap;html=1;" vertex="1" parent="1">
          <mxGeometry x="500" y="100" width="80" height="40" as="geometry" />
        </mxCell>
        <mxCell id="ZfPVv0Ui4lVQKmfQsqAl-56" style="edgeStyle=orthogonalEdgeStyle;rounded=0;orthogonalLoop=1;jettySize=auto;html=1;" edge="1" parent="1" source="ZfPVv0Ui4lVQKmfQsqAl-33" target="ZfPVv0Ui4lVQKmfQsqAl-47">
          <mxGeometry relative="1" as="geometry" />
        </mxCell>
        <mxCell id="ZfPVv0Ui4lVQKmfQsqAl-33" value="3 executors" style="rounded=0;whiteSpace=wrap;html=1;" vertex="1" parent="1">
          <mxGeometry x="500" y="150" width="80" height="40" as="geometry" />
        </mxCell>
        <mxCell id="ZfPVv0Ui4lVQKmfQsqAl-57" style="edgeStyle=orthogonalEdgeStyle;rounded=0;orthogonalLoop=1;jettySize=auto;html=1;exitX=1;exitY=0.5;exitDx=0;exitDy=0;" edge="1" parent="1" source="ZfPVv0Ui4lVQKmfQsqAl-34" target="ZfPVv0Ui4lVQKmfQsqAl-48">
          <mxGeometry relative="1" as="geometry" />
        </mxCell>
        <mxCell id="ZfPVv0Ui4lVQKmfQsqAl-34" value="3 executors" style="rounded=0;whiteSpace=wrap;html=1;" vertex="1" parent="1">
          <mxGeometry x="500" y="200" width="80" height="40" as="geometry" />
        </mxCell>
        <mxCell id="ZfPVv0Ui4lVQKmfQsqAl-58" style="edgeStyle=orthogonalEdgeStyle;rounded=0;orthogonalLoop=1;jettySize=auto;html=1;exitX=1;exitY=0.5;exitDx=0;exitDy=0;entryX=0;entryY=0.5;entryDx=0;entryDy=0;" edge="1" parent="1" source="ZfPVv0Ui4lVQKmfQsqAl-35" target="ZfPVv0Ui4lVQKmfQsqAl-49">
          <mxGeometry relative="1" as="geometry" />
        </mxCell>
        <mxCell id="ZfPVv0Ui4lVQKmfQsqAl-35" value="3 executors" style="rounded=0;whiteSpace=wrap;html=1;" vertex="1" parent="1">
          <mxGeometry x="500" y="255" width="80" height="40" as="geometry" />
        </mxCell>
        <mxCell id="ZfPVv0Ui4lVQKmfQsqAl-59" style="edgeStyle=orthogonalEdgeStyle;rounded=0;orthogonalLoop=1;jettySize=auto;html=1;entryX=0;entryY=0.5;entryDx=0;entryDy=0;" edge="1" parent="1" source="ZfPVv0Ui4lVQKmfQsqAl-36" target="ZfPVv0Ui4lVQKmfQsqAl-50">
          <mxGeometry relative="1" as="geometry" />
        </mxCell>
        <mxCell id="ZfPVv0Ui4lVQKmfQsqAl-36" value="3 executors" style="rounded=0;whiteSpace=wrap;html=1;" vertex="1" parent="1">
          <mxGeometry x="500" y="310" width="80" height="40" as="geometry" />
        </mxCell>
        <mxCell id="ZfPVv0Ui4lVQKmfQsqAl-60" style="edgeStyle=orthogonalEdgeStyle;rounded=0;orthogonalLoop=1;jettySize=auto;html=1;entryX=0;entryY=0.5;entryDx=0;entryDy=0;" edge="1" parent="1" source="ZfPVv0Ui4lVQKmfQsqAl-37" target="ZfPVv0Ui4lVQKmfQsqAl-51">
          <mxGeometry relative="1" as="geometry" />
        </mxCell>
        <mxCell id="ZfPVv0Ui4lVQKmfQsqAl-37" value="3 executors" style="rounded=0;whiteSpace=wrap;html=1;" vertex="1" parent="1">
          <mxGeometry x="500" y="360" width="80" height="40" as="geometry" />
        </mxCell>
        <mxCell id="ZfPVv0Ui4lVQKmfQsqAl-63" style="edgeStyle=orthogonalEdgeStyle;rounded=0;orthogonalLoop=1;jettySize=auto;html=1;entryX=0;entryY=0.5;entryDx=0;entryDy=0;" edge="1" parent="1" source="ZfPVv0Ui4lVQKmfQsqAl-38" target="ZfPVv0Ui4lVQKmfQsqAl-52">
          <mxGeometry relative="1" as="geometry" />
        </mxCell>
        <mxCell id="ZfPVv0Ui4lVQKmfQsqAl-38" value="3 executors" style="rounded=0;whiteSpace=wrap;html=1;" vertex="1" parent="1">
          <mxGeometry x="500" y="410" width="80" height="40" as="geometry" />
        </mxCell>
        <mxCell id="ZfPVv0Ui4lVQKmfQsqAl-64" style="edgeStyle=orthogonalEdgeStyle;rounded=0;orthogonalLoop=1;jettySize=auto;html=1;entryX=0;entryY=0.5;entryDx=0;entryDy=0;" edge="1" parent="1" source="ZfPVv0Ui4lVQKmfQsqAl-39" target="ZfPVv0Ui4lVQKmfQsqAl-53">
          <mxGeometry relative="1" as="geometry" />
        </mxCell>
        <mxCell id="ZfPVv0Ui4lVQKmfQsqAl-39" value="3 executors" style="rounded=0;whiteSpace=wrap;html=1;" vertex="1" parent="1">
          <mxGeometry x="500" y="460" width="80" height="40" as="geometry" />
        </mxCell>
        <mxCell id="ZfPVv0Ui4lVQKmfQsqAl-65" style="edgeStyle=orthogonalEdgeStyle;rounded=0;orthogonalLoop=1;jettySize=auto;html=1;entryX=0;entryY=0.5;entryDx=0;entryDy=0;" edge="1" parent="1" source="ZfPVv0Ui4lVQKmfQsqAl-40" target="ZfPVv0Ui4lVQKmfQsqAl-54">
          <mxGeometry relative="1" as="geometry" />
        </mxCell>
        <mxCell id="ZfPVv0Ui4lVQKmfQsqAl-40" value="3 executors" style="rounded=0;whiteSpace=wrap;html=1;" vertex="1" parent="1">
          <mxGeometry x="500" y="510" width="80" height="40" as="geometry" />
        </mxCell>
        <mxCell id="ZfPVv0Ui4lVQKmfQsqAl-66" style="edgeStyle=orthogonalEdgeStyle;rounded=0;orthogonalLoop=1;jettySize=auto;html=1;entryX=0;entryY=0.5;entryDx=0;entryDy=0;" edge="1" parent="1" source="ZfPVv0Ui4lVQKmfQsqAl-41" target="ZfPVv0Ui4lVQKmfQsqAl-55">
          <mxGeometry relative="1" as="geometry" />
        </mxCell>
        <mxCell id="ZfPVv0Ui4lVQKmfQsqAl-41" value="3 executors" style="rounded=0;whiteSpace=wrap;html=1;" vertex="1" parent="1">
          <mxGeometry x="500" y="560" width="80" height="40" as="geometry" />
        </mxCell>
        <mxCell id="ZfPVv0Ui4lVQKmfQsqAl-43" value="8 cores &amp;amp; 3 GB/executor" style="rounded=0;whiteSpace=wrap;html=1;" vertex="1" parent="1">
          <mxGeometry x="630" y="100" width="150" height="40" as="geometry" />
        </mxCell>
        <mxCell id="ZfPVv0Ui4lVQKmfQsqAl-47" value="8 cores &amp;amp; 3 GB/executor" style="rounded=0;whiteSpace=wrap;html=1;" vertex="1" parent="1">
          <mxGeometry x="630" y="150" width="150" height="40" as="geometry" />
        </mxCell>
        <mxCell id="ZfPVv0Ui4lVQKmfQsqAl-48" value="8 cores &amp;amp; 3 GB/executor" style="rounded=0;whiteSpace=wrap;html=1;" vertex="1" parent="1">
          <mxGeometry x="630" y="200" width="150" height="40" as="geometry" />
        </mxCell>
        <mxCell id="ZfPVv0Ui4lVQKmfQsqAl-49" value="8 cores &amp;amp; 3 GB/executor" style="rounded=0;whiteSpace=wrap;html=1;" vertex="1" parent="1">
          <mxGeometry x="630" y="255" width="150" height="40" as="geometry" />
        </mxCell>
        <mxCell id="ZfPVv0Ui4lVQKmfQsqAl-50" value="8 cores &amp;amp; 3 GB/executor" style="rounded=0;whiteSpace=wrap;html=1;" vertex="1" parent="1">
          <mxGeometry x="630" y="310" width="150" height="40" as="geometry" />
        </mxCell>
        <mxCell id="ZfPVv0Ui4lVQKmfQsqAl-51" value="8 cores &amp;amp; 3 GB/executor" style="rounded=0;whiteSpace=wrap;html=1;" vertex="1" parent="1">
          <mxGeometry x="630" y="360" width="150" height="40" as="geometry" />
        </mxCell>
        <mxCell id="ZfPVv0Ui4lVQKmfQsqAl-52" value="8 cores &amp;amp; 3 GB/executor" style="rounded=0;whiteSpace=wrap;html=1;" vertex="1" parent="1">
          <mxGeometry x="630" y="410" width="150" height="40" as="geometry" />
        </mxCell>
        <mxCell id="ZfPVv0Ui4lVQKmfQsqAl-53" value="8 cores &amp;amp; 3 GB/executor" style="rounded=0;whiteSpace=wrap;html=1;" vertex="1" parent="1">
          <mxGeometry x="630" y="460" width="150" height="40" as="geometry" />
        </mxCell>
        <mxCell id="ZfPVv0Ui4lVQKmfQsqAl-54" value="8 cores &amp;amp; 3 GB/executor" style="rounded=0;whiteSpace=wrap;html=1;" vertex="1" parent="1">
          <mxGeometry x="630" y="510" width="150" height="40" as="geometry" />
        </mxCell>
        <mxCell id="ZfPVv0Ui4lVQKmfQsqAl-55" value="8 cores &amp;amp; 3 GB/executor" style="rounded=0;whiteSpace=wrap;html=1;" vertex="1" parent="1">
          <mxGeometry x="630" y="560" width="150" height="40" as="geometry" />
        </mxCell>
        <mxCell id="ZfPVv0Ui4lVQKmfQsqAl-79" value="&lt;b&gt;Executors per node | executor cores &amp;amp; memory&amp;nbsp;&lt;/b&gt;" style="rounded=1;whiteSpace=wrap;html=1;" vertex="1" parent="1">
          <mxGeometry x="490" y="20" width="310" height="50" as="geometry" />
        </mxCell>
      </root>
    </mxGraphModel>
  </diagram>
</mxfile>
